<?xml version="1.0" encoding="UTF-8" standalone="no"?>
<svg
   xmlns:dc="http://purl.org/dc/elements/1.1/"
   xmlns:cc="http://creativecommons.org/ns#"
   xmlns:rdf="http://www.w3.org/1999/02/22-rdf-syntax-ns#"
   xmlns:svg="http://www.w3.org/2000/svg"
   xmlns="http://www.w3.org/2000/svg"
   viewBox="0 0 422.80118 408.89981"
   height="408.89981"
   width="422.80118"
   version="1.1"
   id="svg2">
  <metadata
     id="metadata8">
    <rdf:RDF>
      <cc:Work
         rdf:about="">
        <dc:format>image/svg+xml</dc:format>
        <dc:type
           rdf:resource="http://purl.org/dc/dcmitype/StillImage" />
        <dc:title></dc:title>
      </cc:Work>
    </rdf:RDF>
  </metadata>
  <defs
     id="defs6" />
  <path
     id="path4138"
     d="M 137.67735,404.99346 C 96.341835,389.62703 60.330145,361.14028 35.636645,324.27498 27.668793,312.37967 15.754183,287.92097 11.363983,274.4473 -2.4878475,231.9355 -2.4540175,187.26908 11.462083,144.97845 37.475025,65.925795 107.78655,10.137877 191.71753,1.956747 c 61.87622,-6.03136 124.85833,16.70484 169.25284,61.099348 43.52472,43.524715 65.93234,105.690965 59.84685,166.035255 -1.44428,14.32165 -5.30325,32.84206 -9.50382,45.61189 -4.3795,13.31376 -16.35917,37.82589 -24.2269,49.57174 -21.09303,31.49011 -48.95157,55.80033 -82.72492,72.18834 -23.97345,11.63276 -32.80433,13.62126 -37.89675,8.53364 -2.04478,-2.04286 -2.11783,-3.16399 -2.62775,-40.32547 -0.50387,-36.72035 -0.61559,-38.47992 -2.83965,-44.72419 -1.27333,-3.575 -4.0852,-9.09764 -6.24859,-12.27252 -2.62095,-3.84637 -3.50865,-5.8953 -2.66035,-6.14048 0.7002,-0.20238 5.99809,-1.13115 11.77309,-2.06394 20.34862,-3.28675 39.88562,-11.48948 52.17937,-21.90782 13.68407,-11.59658 23.6306,-30.23034 27.28485,-51.11524 5.77538,-33.00772 0.75446,-59.03473 -15.23243,-78.9607 l -3.88071,-4.83689 1.82446,-6.57956 c 2.50019,-9.01645 2.44334,-24.98317 -0.12713,-35.70416 -3.04061,-12.681905 -3.53471,-13.418685 -8.99883,-13.418685 -10.19137,0 -26.33067,5.87478 -42.4,15.433805 l -10.62126,6.31817 -7.76416,-1.78848 c -15.76818,-3.63222 -23.74987,-4.4204 -44.76416,-4.4204 -21.01429,0 -28.99598,0.78818 -44.76416,4.4204 l -7.76416,1.78848 -10.62126,-6.31817 c -16.06933,-9.559025 -32.20863,-15.433805 -42.4,-15.433805 -5.46412,0 -5.958215,0.73678 -8.998825,13.418685 -2.57047,10.72099 -2.62732,26.68771 -0.12713,35.70416 l 1.82446,6.57956 -3.88071,4.83689 c -12.84878,16.01464 -18.78873,36.40147 -17.38437,59.66589 2.24541,37.19731 14.09576,61.05055 38.122205,76.73519 11.44323,7.47022 28.16678,13.44331 44.99395,16.07032 12.96168,2.02355 12.1643,1.31639 7.95311,7.05317 -3.66994,4.99947 -8.39233,16.53341 -8.43202,20.59433 -0.0515,5.26844 -23.96412,9.22612 -35.57626,5.88809 -10.74466,-3.08867 -18.36856,-9.27012 -25.841595,-20.95237 -4.7639,-7.44717 -11.40549,-13.67688 -18.76052,-17.59707 -12.21797,-6.51211 -27.36889,-4.36195 -21.56091,3.05983 0.67001,0.85618 3.70663,3.38469 6.74805,5.61891 9.48008,6.96407 15.30285,14.27227 21.46015,26.93484 6.54439,13.45862 11.88031,19.52852 21.384745,24.32635 9.91652,5.00584 17.60603,6.35214 32.62525,5.71211 7.15,-0.30468 14.2375,-0.85279 15.75,-1.21801 l 2.75,-0.66403 0,21.18231 c 0,12.61578 -0.41641,21.96039 -1.02964,23.10623 -1.3511,2.52454 -6.15582,4.95699 -9.6707,4.89599 -1.53981,-0.027 -6.25755,-1.3341 -10.48387,-2.90522 z m -3.28714,-61.40155 c -2.64583,-1.93468 -1.29366,-4.64461 2.31752,-4.64461 1.59992,0 3.50955,0.7237 4.24364,1.60821 1.13401,1.3664 1.0485,1.81748 -0.56869,3 -2.38379,1.74307 -3.64795,1.75075 -5.99247,0.0364 z m 15.47135,-1.63146 c -2.49383,-1.58976 0.11378,-4.51315 4.02565,-4.51315 3.80371,0 4.78087,1.55062 2.44756,3.88393 -1.81671,1.81671 -4.2408,2.05234 -6.47321,0.62922 z m -32.98943,-1.50042 c -1.76177,-2.12279 -0.49782,-4.51273 2.38662,-4.51273 2.98295,0 5.72809,2.50994 4.95333,4.52894 -0.73354,1.91157 -5.74923,1.9005 -7.33995,-0.0162 z m -13.81057,-7.71273 c -0.66,-0.66 -1.2,-2.235 -1.2,-3.5 0,-1.73333 0.56667,-2.3 2.3,-2.3 2.93065,0 4.7,1.76935 4.7,4.7 0,1.73333 -0.56667,2.3 -2.3,2.3 -1.265,0 -2.84,-0.54 -3.5,-1.2 z M 92.667255,319.42017 c -0.87875,-1.92864 -0.86716,-2.8114 0.049,-3.72752 1.73848,-1.73848 4.56915,0.31844 4.96177,3.60551 0.2533,2.12067 -0.10008,2.64914 -1.77144,2.64914 -1.2626,0 -2.54298,-0.99888 -3.23929,-2.52713 z m -8.33764,-11.57353 c -1.01696,-3.20416 1.05948,-4.63689 3.50832,-2.42072 2.74494,2.48414 2.56066,4.52138 -0.40898,4.52138 -1.59321,0 -2.66268,-0.72486 -3.09934,-2.10066 z m -9.0219,-7.98647 c -0.36954,-0.59793 -0.15871,-1.60031 0.46851,-2.22753 1.25604,-1.25604 4.15293,0.0174 4.85915,2.1361 0.4996,1.4988 -4.40583,1.58297 -5.32766,0.0914 z"
     style="fill:#000000" />
</svg>
